<svg xmlns="http://www.w3.org/2000/svg" version="1.1" xmlns:xlink="http://www.w3.org/1999/xlink" xmlns:svgjs="http://svgjs.com/svgjs" width="1440" height="560" preserveAspectRatio="none" viewBox="0 0 1440 560"><g mask="url(&quot;#SvgjsMask1000&quot;)" fill="none"><rect width="1440" height="560" x="0" y="0" fill="#1e3266"></rect><path d="M1488 560L0 560 L0 357.59Q45.77 283.36, 120 329.13Q158.47 247.6, 240 286.06Q306.21 232.27, 360 298.48Q417.77 284.25, 432 342.02Q499.14 289.16, 552 356.3Q621.19 305.49, 672 374.68Q689.12 271.8, 792 288.92Q861.89 238.81, 912 308.7Q954.9 279.61, 984 322.51Q1051.7 270.22, 1104 337.92Q1112.65 274.57, 1176 283.22Q1246.8 234.02, 1296 304.82Q1381.31 270.13, 1416 355.43Q1432.11 299.54, 1488 315.65z" fill="#182f5d"></path><path d="M1560 560L0 560 L0 394.6Q54.68 329.28, 120 383.96Q176.87 368.82, 192 425.69Q261.43 375.12, 312 444.55Q326.32 338.88, 432 353.2Q501.84 303.04, 552 372.88Q602.84 351.72, 624 402.56Q671.43 377.99, 696 425.42Q732.42 341.84, 816 378.25Q889.72 331.97, 936 405.68Q973.23 322.91, 1056 360.15Q1129.76 313.91, 1176 387.67Q1258.41 350.08, 1296 432.49Q1297.63 362.13, 1368 363.76Q1397.38 321.13, 1440 350.51Q1518.59 309.1, 1560 387.69z" fill="#25467d"></path><path d="M1464 560L0 560 L0 421.2Q42.83 392.03, 72 434.87Q116.12 406.99, 144 451.11Q219.72 406.83, 264 482.55Q332.31 430.86, 384 499.16Q396.33 439.49, 456 451.82Q527.25 403.07, 576 474.32Q648.28 426.61, 696 498.89Q701.93 432.82, 768 438.75Q834.87 385.62, 888 452.49Q909.89 402.38, 960 424.28Q1041.51 385.79, 1080 467.3Q1110.97 426.27, 1152 457.25Q1196.47 381.73, 1272 426.2Q1372.24 406.44, 1392 506.69Q1411.21 453.9, 1464 473.11z" fill="#356cb1"></path><path d="M1464 560L0 560 L0 561.8Q33.44 475.24, 120 508.67Q165.31 481.98, 192 527.28Q235.56 498.84, 264 542.4Q322.36 528.75, 336 587.11Q362.15 541.26, 408 567.42Q425.38 512.79, 480 530.17Q529.29 459.46, 600 508.75Q692.38 481.13, 720 573.52Q752.82 486.34, 840 519.16Q892.29 499.45, 912 551.75Q920.88 488.63, 984 497.52Q1018.59 460.11, 1056 494.7Q1101.6 468.3, 1128 513.9Q1176.18 490.09, 1200 538.27Q1244.65 510.92, 1272 555.58Q1307.04 470.62, 1392 505.66Q1440.9 482.57, 1464 531.47z" fill="white"></path></g><defs><mask id="SvgjsMask1000"><rect width="1440" height="560" fill="#ffffff"></rect></mask></defs></svg>